<?xml version="1.0" encoding="UTF-8"?>
<!DOCTYPE svg PUBLIC "-//W3C//DTD SVG 1.1//EN" "http://www.w3.org/Graphics/SVG/1.1/DTD/svg11.dtd">
<svg xmlns="http://www.w3.org/2000/svg" version="1.1" width="500px" height="500px" style="shape-rendering:geometricPrecision; text-rendering:geometricPrecision; image-rendering:optimizeQuality; fill-rule:evenodd; clip-rule:evenodd" xmlns:xlink="http://www.w3.org/1999/xlink">
<g><path style="opacity:1" fill="#f9faf9" d="M 479.5,9.5 C 480.833,10.1667 480.833,10.1667 479.5,9.5 Z"/></g>
<g><path style="opacity:1" fill="#f9faf9" d="M 379.5,26.5 C 380.833,27.1667 380.833,27.1667 379.5,26.5 Z"/></g>
<g><path style="opacity:1" fill="#f9faf9" d="M 9.5,33.5 C 10.8333,34.1667 10.8333,34.1667 9.5,33.5 Z"/></g>
<g><path style="opacity:1" fill="#f9faf9" d="M 486.5,44.5 C 487.833,45.1667 487.833,45.1667 486.5,44.5 Z"/></g>
<g><path style="opacity:1" fill="#f9faf9" d="M 31.5,49.5 C 32.8333,50.1667 32.8333,50.1667 31.5,49.5 Z"/></g>
<g><path style="opacity:1" fill="#f9faf9" d="M 95.5,62.5 C 96.8333,63.1667 96.8333,63.1667 95.5,62.5 Z"/></g>
<g><path style="opacity:1" fill="#f9faf9" d="M 46.5,64.5 C 47.8333,65.1667 47.8333,65.1667 46.5,64.5 Z"/></g>
<g><path style="opacity:1" fill="#f9faf9" d="M 495.5,64.5 C 496.833,65.1667 496.833,65.1667 495.5,64.5 Z"/></g>
<g><path style="opacity:1" fill="#f9faf9" d="M 300.5,73.5 C 301.833,74.1667 301.833,74.1667 300.5,73.5 Z"/></g>
<g><path style="opacity:1" fill="#f9faf9" d="M 470.5,75.5 C 471.833,76.1667 471.833,76.1667 470.5,75.5 Z"/></g>
<g><path style="opacity:1" fill="#f9faf9" d="M 393.5,76.5 C 394.833,77.1667 394.833,77.1667 393.5,76.5 Z"/></g>
<g><path style="opacity:1" fill="#f9faf9" d="M 150.5,82.5 C 151.833,83.1667 151.833,83.1667 150.5,82.5 Z"/></g>
<g><path style="opacity:1" fill="#f9faf9" d="M 131.5,86.5 C 132.833,87.1667 132.833,87.1667 131.5,86.5 Z"/></g>
<g><path style="opacity:1" fill="#f9faf9" d="M 132.5,92.5 C 133.833,93.1667 133.833,93.1667 132.5,92.5 Z"/></g>
<g><path style="opacity:1" fill="#f9faf9" d="M 443.5,94.5 C 444.833,95.1667 444.833,95.1667 443.5,94.5 Z"/></g>
<g><path style="opacity:1" fill="#f9faf9" d="M 473.5,103.5 C 474.833,104.167 474.833,104.167 473.5,103.5 Z"/></g>
<g><path style="opacity:1" fill="#f9faf9" d="M 218.5,108.5 C 219.833,109.167 219.833,109.167 218.5,108.5 Z"/></g>
<g><path style="opacity:1" fill="#f9faf9" d="M 428.5,108.5 C 429.833,109.167 429.833,109.167 428.5,108.5 Z"/></g>
<g><path style="opacity:1" fill="#f9faf9" d="M 289.5,111.5 C 290.833,112.167 290.833,112.167 289.5,111.5 Z"/></g>
<g><path style="opacity:1" fill="#f9faf9" d="M 95.5,122.5 C 96.8333,123.167 96.8333,123.167 95.5,122.5 Z"/></g>
<g><path style="opacity:1" fill="#f9faf9" d="M 157.5,123.5 C 158.833,124.167 158.833,124.167 157.5,123.5 Z"/></g>
<g><path style="opacity:1" fill="#f9faf9" d="M 93.5,129.5 C 94.8333,130.167 94.8333,130.167 93.5,129.5 Z"/></g>
<g><path style="opacity:1" fill="#057b45" d="M 105.5,151.5 C 104.337,177.663 104.17,203.997 105,230.5C 105.76,234.819 106.427,239.152 107,243.5C 107.278,244.416 107.778,245.082 108.5,245.5C 113.741,258.717 123.574,265.05 138,264.5C 154.118,264.619 165.785,257.619 173,243.5C 174.951,235.3 175.951,226.966 176,218.5C 176.907,193.807 176.574,169.14 175,144.5C 173.878,142.376 172.378,140.543 170.5,139C 166.249,137.805 161.915,137.305 157.5,137.5C 157.5,135.833 157.5,134.167 157.5,132.5C 172.837,132.333 188.17,132.5 203.5,133C 204.937,137.356 203.604,138.856 199.5,137.5C 193.649,137.515 189.482,140.182 187,145.5C 185.717,174.132 185.05,202.799 185,231.5C 184.02,251.125 174.52,264.625 156.5,272C 142.833,275.333 129.167,275.333 115.5,272C 97.6752,264.85 88.3419,251.683 87.5,232.5C 87.6666,204.831 87.5,177.165 87,149.5C 86.7216,148.584 86.2216,147.918 85.5,147.5C 84.755,142.254 81.755,139.087 76.5,138C 73.5184,137.502 70.5184,137.335 67.5,137.5C 67.5,135.833 67.5,134.167 67.5,132.5C 86.1667,132.5 104.833,132.5 123.5,132.5C 123.662,134.527 123.495,136.527 123,138.5C 112.267,136.052 106.434,140.385 105.5,151.5 Z"/></g>
<g><path style="opacity:1" fill="#047c45" d="M 403.5,260.5 C 410.981,257.849 416.815,253.182 421,246.5C 423.212,241.389 425.879,236.722 429,232.5C 430.5,232.667 431.333,233.5 431.5,235C 428.026,247.088 424.359,259.088 420.5,271C 387.502,271.5 354.502,271.667 321.5,271.5C 321.5,269.833 321.5,268.167 321.5,266.5C 325.936,266.79 330.27,266.29 334.5,265C 337.181,262.806 338.681,259.973 339,256.5C 339.667,220.5 339.667,184.5 339,148.5C 338.728,145.618 337.894,142.951 336.5,140.5C 336.423,139.25 335.756,138.417 334.5,138C 330.582,136.844 326.582,136.344 322.5,136.5C 322.5,135.5 322.5,134.5 322.5,133.5C 337.501,133.682 352.501,134.015 367.5,134.5C 367.5,135.5 367.5,136.5 367.5,137.5C 363.364,138.127 360.53,140.46 359,144.5C 357.838,150.781 357.004,157.114 356.5,163.5C 357.045,195.919 357.379,228.252 357.5,260.5C 359.308,260.491 360.975,260.991 362.5,262C 375.167,262.667 387.833,262.667 400.5,262C 401.737,261.768 402.737,261.268 403.5,260.5 Z"/></g>
<g><path style="opacity:1" fill="#f9faf9" d="M 314.5,139.5 C 315.833,140.167 315.833,140.167 314.5,139.5 Z"/></g>
<g><path style="opacity:1" fill="#067c45" d="M 246.5,129.5 C 248.167,129.5 249.833,129.5 251.5,129.5C 266.702,170.245 282.202,210.912 298,251.5C 300.825,260.658 306.992,265.825 316.5,267C 317.833,268.333 317.833,269.667 316.5,271C 299.503,271.5 282.503,271.667 265.5,271.5C 265.5,269.833 265.5,268.167 265.5,266.5C 269.41,266.737 273.077,265.904 276.5,264C 277.848,262.426 278.514,260.593 278.5,258.5C 276.032,247.429 272.365,236.763 267.5,226.5C 260.167,226.167 252.833,225.833 245.5,225.5C 236.436,225.57 227.602,225.903 219,226.5C 214.692,236.758 211.192,247.258 208.5,258C 208.305,260.352 208.972,262.352 210.5,264C 214.378,265.47 218.378,266.303 222.5,266.5C 222.5,268.167 222.5,269.833 222.5,271.5C 208.833,271.5 195.167,271.5 181.5,271.5C 181.5,269.833 181.5,268.167 181.5,266.5C 184.625,266.135 187.625,265.302 190.5,264C 194.545,259.418 197.711,254.251 200,248.5C 215.513,208.812 231.013,169.145 246.5,129.5 Z M 243.5,164.5 C 250.389,181.3 257.056,198.3 263.5,215.5C 250.183,216.499 236.85,216.833 223.5,216.5C 229.968,199.095 236.635,181.762 243.5,164.5 Z"/></g>
<g><path style="opacity:1" fill="#f9faf9" d="M 200.5,144.5 C 201.833,145.167 201.833,145.167 200.5,144.5 Z"/></g>
<g><path style="opacity:1" fill="#f9faf9" d="M 290.5,162.5 C 291.833,163.167 291.833,163.167 290.5,162.5 Z"/></g>
<g><path style="opacity:1" fill="#f9faf9" d="M 407.5,172.5 C 408.833,173.167 408.833,173.167 407.5,172.5 Z"/></g>
<g><path style="opacity:1" fill="#f9faf9" d="M 45.5,173.5 C 46.8333,174.167 46.8333,174.167 45.5,173.5 Z"/></g>
<g><path style="opacity:1" fill="#0d6945" d="M 105.5,151.5 C 105.333,176.836 105.5,202.169 106,227.5C 106.727,233.525 107.56,239.525 108.5,245.5C 107.778,245.082 107.278,244.416 107,243.5C 106.427,239.152 105.76,234.819 105,230.5C 104.17,203.997 104.337,177.663 105.5,151.5 Z"/></g>
<g><path style="opacity:1" fill="#16633f" d="M 403.5,260.5 C 402.737,261.268 401.737,261.768 400.5,262C 387.833,262.667 375.167,262.667 362.5,262C 360.975,260.991 359.308,260.491 357.5,260.5C 357.379,228.252 357.045,195.919 356.5,163.5C 357.004,157.114 357.838,150.781 359,144.5C 360.53,140.46 363.364,138.127 367.5,137.5C 367.5,136.5 367.5,135.5 367.5,134.5C 352.501,134.015 337.501,133.682 322.5,133.5C 322.5,134.5 322.5,135.5 322.5,136.5C 326.582,136.344 330.582,136.844 334.5,138C 335.756,138.417 336.423,139.25 336.5,140.5C 331.819,138.12 326.819,137.12 321.5,137.5C 321.5,135.833 321.5,134.167 321.5,132.5C 341.167,132.5 360.833,132.5 380.5,132.5C 380.819,134.75 380.319,136.75 379,138.5C 373.652,137.646 368.485,138.48 363.5,141C 361.951,142.214 360.785,143.714 360,145.5C 359.333,182.5 359.333,219.5 360,256.5C 361.066,259.563 363.233,261.063 366.5,261C 378.855,261.728 391.188,261.562 403.5,260.5 Z"/></g>
<g><path style="opacity:1" fill="#f9faf9" d="M 478.5,175.5 C 479.833,176.167 479.833,176.167 478.5,175.5 Z"/></g>
<g><path style="opacity:1" fill="#f9faf9" d="M 286.5,186.5 C 287.833,187.167 287.833,187.167 286.5,186.5 Z"/></g>
<g><path style="opacity:1" fill="#f9faf9" d="M 324.5,188.5 C 325.833,189.167 325.833,189.167 324.5,188.5 Z"/></g>
<g><path style="opacity:1" fill="#186344" d="M 85.5,147.5 C 86.2216,147.918 86.7216,148.584 87,149.5C 87.5,177.165 87.6666,204.831 87.5,232.5C 86.8006,204.313 86.1339,175.98 85.5,147.5 Z"/></g>
<g><path style="opacity:1" fill="#f9faf9" d="M 374.5,191.5 C 375.833,192.167 375.833,192.167 374.5,191.5 Z"/></g>
<g><path style="opacity:1" fill="#f9faf9" d="M 473.5,210.5 C 474.833,211.167 474.833,211.167 473.5,210.5 Z"/></g>
<g><path style="opacity:1" fill="#f9faf9" d="M 73.5,215.5 C 74.8333,216.167 74.8333,216.167 73.5,215.5 Z"/></g>
<g><path style="opacity:1" fill="#f9faf9" d="M 460.5,217.5 C 461.833,218.167 461.833,218.167 460.5,217.5 Z"/></g>
<g><path style="opacity:1" fill="#f9faf9" d="M 306.5,218.5 C 307.833,219.167 307.833,219.167 306.5,218.5 Z"/></g>
<g><path style="opacity:1" fill="#f9faf9" d="M 19.5,231.5 C 20.8333,232.167 20.8333,232.167 19.5,231.5 Z"/></g>
<g><path style="opacity:1" fill="#f9faf9" d="M 378.5,233.5 C 379.833,234.167 379.833,234.167 378.5,233.5 Z"/></g>
<g><path style="opacity:1" fill="#f9faf9" d="M 144.5,239.5 C 145.833,240.167 145.833,240.167 144.5,239.5 Z"/></g>
<g><path style="opacity:1" fill="#f9faf9" d="M 47.5,246.5 C 48.8333,247.167 48.8333,247.167 47.5,246.5 Z"/></g>
<g><path style="opacity:1" fill="#f9faf9" d="M 34.5,275.5 C 35.8333,276.167 35.8333,276.167 34.5,275.5 Z"/></g>
<g><path style="opacity:1" fill="#f9faf9" d="M 234.5,277.5 C 235.833,278.167 235.833,278.167 234.5,277.5 Z"/></g>
<g><path style="opacity:1" fill="#f9faf9" d="M 446.5,287.5 C 447.833,288.167 447.833,288.167 446.5,287.5 Z"/></g>
<g><path style="opacity:1" fill="#f9faf9" d="M 471.5,296.5 C 472.833,297.167 472.833,297.167 471.5,296.5 Z"/></g>
<g><path style="opacity:1" fill="#a1c04f" d="M 65.5,288.5 C 188.5,288.5 311.5,288.5 434.5,288.5C 434.803,293.43 434.469,298.263 433.5,303C 348.263,303.168 263.097,303.668 178,304.5C 140.573,303.504 103.073,303.17 65.5,303.5C 65.5,298.5 65.5,293.5 65.5,288.5 Z"/></g>
<g><path style="opacity:1" fill="#a6cb42" d="M 77.5,290.5 C 195.833,290.5 314.167,290.5 432.5,290.5C 432.823,294.226 432.489,297.893 431.5,301.5C 418.691,302.233 405.857,301.899 393,300.5C 333.82,301.141 274.653,301.475 215.5,301.5C 196.833,301.167 178.167,300.833 159.5,300.5C 156.296,299.796 153.129,299.13 150,298.5C 146.898,299.103 143.398,299.436 139.5,299.5C 136.833,298.833 134.167,298.167 131.5,297.5C 114.556,298.43 97.5558,298.597 80.5,298C 77.4975,300.871 74.1642,301.037 70.5,298.5C 70.1667,296.5 69.8333,294.5 69.5,292.5C 71.4213,291.359 73.4213,291.192 75.5,292C 74.5,292.333 73.5,292.667 72.5,293C 74.0762,293.44 75.4096,294.273 76.5,295.5C 78.6263,294.091 78.9596,292.424 77.5,290.5 Z"/></g>
<g><path style="opacity:1" fill="#f9faf9" d="M 398.5,307.5 C 399.833,308.167 399.833,308.167 398.5,307.5 Z"/></g>
<g><path style="opacity:1" fill="#f9faf9" d="M 301.5,311.5 C 302.833,312.167 302.833,312.167 301.5,311.5 Z"/></g>
<g><path style="opacity:1" fill="#1f774b" d="M 347.5,310.5 C 351.225,310.537 352.558,312.204 351.5,315.5C 346.733,316.899 345.4,315.232 347.5,310.5 Z"/></g>
<g><path style="opacity:1" fill="#13784a" d="M 271.5,310.5 C 277.456,310.604 283.456,310.604 289.5,310.5C 290.336,319.241 288.503,320.241 284,313.5C 281.552,319.953 279.719,326.62 278.5,333.5C 279.675,333.281 280.675,333.614 281.5,334.5C 277.5,335.833 273.5,335.833 269.5,334.5C 270.242,333.713 271.075,333.047 272,332.5C 274.171,326.522 275.337,320.522 275.5,314.5C 273.867,316.503 271.867,317.836 269.5,318.5C 269.56,315.659 270.226,312.993 271.5,310.5 Z"/></g>
<g><path style="opacity:1" fill="#197b4d" d="M 91.5,310.5 C 97.51,310.381 103.343,310.715 109,311.5C 109.279,314.385 108.612,317.052 107,319.5C 106.02,317.941 105.187,316.274 104.5,314.5C 102.802,313.319 101.135,313.319 99.5,314.5C 95.9559,322.391 97.2892,323.391 103.5,317.5C 104.65,321.918 103.816,325.918 101,329.5C 100.506,327.866 100.34,326.199 100.5,324.5C 99.1667,324.5 97.8333,324.5 96.5,324.5C 95.6789,327.554 95.6789,330.554 96.5,333.5C 100.1,333.274 102.766,331.608 104.5,328.5C 105.325,327.614 106.325,327.281 107.5,327.5C 107.244,329.937 106.577,332.271 105.5,334.5C 99.1667,335.833 92.8333,335.833 86.5,334.5C 87.5217,333.646 88.3551,332.646 89,331.5C 90.3455,325.784 91.8455,320.118 93.5,314.5C 90.942,313.782 90.2753,312.449 91.5,310.5 Z"/></g>
<g><path style="opacity:1" fill="#f9faf9" d="M 385.5,317.5 C 386.833,318.167 386.833,318.167 385.5,317.5 Z"/></g>
<g><path style="opacity:1" fill="#167c4a" d="M 188.5,333.5 C 188.131,338.012 185.798,339.512 181.5,338C 179.366,335.902 177.032,335.069 174.5,335.5C 176.582,331.253 179.249,327.419 182.5,324C 180.536,323.376 178.869,323.876 177.5,325.5C 176.808,324.975 176.308,324.308 176,323.5C 175,324.833 174,324.833 173,323.5C 170.217,327.015 168.717,331.015 168.5,335.5C 166.396,335.799 164.396,335.466 162.5,334.5C 164.487,329.925 165.154,325.258 164.5,320.5C 165.348,319.009 166.681,318.342 168.5,318.5C 170.607,319.372 172.607,319.372 174.5,318.5C 175.647,318.818 176.481,319.484 177,320.5C 178.698,319.267 180.698,318.6 183,318.5C 184.833,318.667 186.667,318.833 188.5,319C 188.833,319.333 189.167,319.667 189.5,320C 186.5,323.667 183.5,327.333 180.5,331C 181.701,331.903 182.535,333.069 183,334.5C 184.569,331.336 186.402,331.003 188.5,333.5 Z"/></g>
<g><path style="opacity:1" fill="#0f7f47" d="M 188.5,333.5 C 187.352,327.302 189.352,322.469 194.5,319C 200.471,316.903 203.471,318.903 203.5,325C 203.261,331.24 200.095,335.073 194,336.5C 191.808,336.137 189.974,335.137 188.5,333.5 Z M 197.5,320.5 C 198.286,325.04 197.286,329.373 194.5,333.5C 193.444,328.723 194.444,324.389 197.5,320.5 Z"/></g>
<g><path style="opacity:1" fill="#117d4a" d="M 131.5,309.5 C 136.608,310.322 137.608,312.655 134.5,316.5C 131.247,313.662 130.247,314.329 131.5,318.5C 134.319,318.742 137.319,318.742 140.5,318.5C 139.713,322.93 138.88,327.263 138,331.5C 140.637,327.928 142.303,323.928 143,319.5C 144.699,318.594 146.533,318.261 148.5,318.5C 147.97,322.285 146.97,325.952 145.5,329.5C 146.616,329.402 147.616,329.902 148.5,331C 147.314,333.685 145.314,335.518 142.5,336.5C 141.201,335.91 140.368,334.91 140,333.5C 137.521,336.683 134.854,337.016 132,334.5C 132.182,330.428 133.015,326.428 134.5,322.5C 132.955,321.548 131.288,321.215 129.5,321.5C 128.848,328.958 126.515,335.791 122.5,342C 115.737,343.6 114.237,341.767 118,336.5C 119.309,338.891 120.309,338.891 121,336.5C 121.79,331.541 122.957,326.708 124.5,322C 123.5,321.667 122.5,321.333 121.5,321C 122.308,319.294 123.641,318.461 125.5,318.5C 125.932,314.41 127.932,311.41 131.5,309.5 Z"/></g>
<g><path style="opacity:1" fill="#00fa00" d="M 98.5,326.5 C 99.8333,327.167 99.8333,327.167 98.5,326.5 Z"/></g>
<g><path style="opacity:1" fill="#0d7c48" d="M 218.5,318.5 C 221.935,319.368 225.269,319.368 228.5,318.5C 227.464,325.312 225.797,331.978 223.5,338.5C 223.919,339.672 224.585,340.672 225.5,341.5C 222.167,342.833 218.833,342.833 215.5,341.5C 217.637,340.262 218.971,338.429 219.5,336C 214.759,337.438 212.426,335.604 212.5,330.5C 212.912,325.676 214.912,321.676 218.5,318.5 Z M 220.5,321.5 C 221.497,321.47 222.164,321.97 222.5,323C 221.757,326.579 220.257,329.746 218,332.5C 217.889,328.654 218.723,324.988 220.5,321.5 Z"/></g>
<g><path style="opacity:1" fill="#147d4a" d="M 300.5,324.5 C 301.338,324.158 301.672,323.492 301.5,322.5C 302.962,321.542 304.295,320.376 305.5,319C 308.936,319.348 312.269,319.181 315.5,318.5C 315.326,322.693 314.326,326.693 312.5,330.5C 312.667,330.833 312.833,331.167 313,331.5C 314.154,330.257 315.488,329.257 317,328.5C 317.9,330.398 319.066,332.064 320.5,333.5C 320.833,333.167 321.167,332.833 321.5,332.5C 320.533,330.37 319.366,328.37 318,326.5C 316.853,319.161 320.019,316.494 327.5,318.5C 327.798,326.438 326.298,327.105 323,320.5C 322.308,321.025 321.808,321.692 321.5,322.5C 329.193,331.074 327.526,335.741 316.5,336.5C 315.719,335.271 315.219,333.938 315,332.5C 312.969,336.521 310.303,337.187 307,334.5C 304.952,336.787 302.785,336.954 300.5,335C 299.283,331.534 299.283,328.034 300.5,324.5 Z M 307.5,321.5 C 308.497,321.47 309.164,321.97 309.5,323C 309.115,326.728 307.615,329.894 305,332.5C 305.034,328.692 305.868,325.025 307.5,321.5 Z"/></g>
<g><path style="opacity:1" fill="#147a49" d="M 301.5,322.5 C 300.662,322.842 300.328,323.508 300.5,324.5C 298.799,324.034 297.299,324.034 296,324.5C 293.924,327.893 292.758,331.56 292.5,335.5C 290.473,335.662 288.473,335.495 286.5,335C 288.725,329.966 289.558,324.799 289,319.5C 292.744,318.374 296.577,318.207 300.5,319C 301.337,320.011 301.67,321.178 301.5,322.5 Z"/></g>
<g><path style="opacity:1" fill="#f9faf9" d="M 32.5,328.5 C 33.8333,329.167 33.8333,329.167 32.5,328.5 Z"/></g>
<g><path style="opacity:1" fill="#147f49" d="M 230.5,318.5 C 232.857,318.337 235.19,318.503 237.5,319C 235.945,322.717 235.111,326.55 235,330.5C 237.783,326.985 239.283,322.985 239.5,318.5C 241.604,318.201 243.604,318.534 245.5,319.5C 244.346,322.452 243.346,325.452 242.5,328.5C 243.242,329.287 244.075,329.953 245,330.5C 245.864,325.629 248.364,321.796 252.5,319C 258.667,317.167 260.833,319.333 259,325.5C 257.355,327.662 255.188,328.995 252.5,329.5C 251.614,330.325 251.281,331.325 251.5,332.5C 253.923,332.576 255.756,331.576 257,329.5C 258.345,331.443 257.845,333.276 255.5,335C 251.149,336.929 247.649,335.762 245,331.5C 242.645,336.557 239.645,337.224 236,333.5C 232.75,337.684 230.25,337.351 228.5,332.5C 228.961,328.821 229.961,325.321 231.5,322C 229.273,321.296 228.94,320.129 230.5,318.5 Z M 254.5,321.5 C 255.522,322.892 255.189,324.225 253.5,325.5C 253.167,325.333 252.833,325.167 252.5,325C 253.305,323.887 253.972,322.721 254.5,321.5 Z"/></g>
<g><path style="opacity:1" fill="#177f4b" d="M 334.5,318.5 C 337.365,318.055 339.865,318.722 342,320.5C 344.841,318.496 348.007,317.996 351.5,319C 349.631,322.637 348.798,326.471 349,330.5C 349.667,329.167 350.333,329.167 351,330.5C 351.797,322.693 355.963,318.86 363.5,319C 366.354,322.6 365.687,325.6 361.5,328C 359.913,328.862 358.246,329.529 356.5,330C 357.047,330.925 357.713,331.758 358.5,332.5C 359.833,331.5 361.167,330.5 362.5,329.5C 362.985,333.227 361.152,335.561 357,336.5C 354.085,335.917 352.085,334.25 351,331.5C 349.54,335.145 347.04,336.478 343.5,335.5C 343.192,330.783 343.192,326.116 343.5,321.5C 340.91,326.667 338.576,326.667 336.5,321.5C 334.121,324.757 333.121,328.424 333.5,332.5C 335.929,332.415 337.929,331.415 339.5,329.5C 339.985,333.227 338.152,335.561 334,336.5C 328.773,334.651 327.106,330.985 329,325.5C 330.371,322.734 332.204,320.401 334.5,318.5 Z M 358.5,325.5 C 358.066,322.834 359.066,321.667 361.5,322C 360.837,323.518 359.837,324.685 358.5,325.5 Z"/></g>
<g><path style="opacity:1" fill="#147f4c" d="M 156.5,318.5 C 161.501,317.671 163.668,319.671 163,324.5C 160.748,327.029 158.248,329.196 155.5,331C 155.833,331.5 156.167,332 156.5,332.5C 157.833,331.5 159.167,330.5 160.5,329.5C 160.985,333.227 159.152,335.561 155,336.5C 151.323,335.828 149.49,333.661 149.5,330C 149.946,324.927 152.28,321.094 156.5,318.5 Z M 156.5,325.5 C 156.312,323.897 156.812,322.563 158,321.5C 158.773,323.352 158.273,324.686 156.5,325.5 Z"/></g>
<g><path style="opacity:1" fill="#187a4c" d="M 405.5,318.5 C 413.897,318.789 415.23,321.956 409.5,328C 407.779,328.739 406.113,329.573 404.5,330.5C 404.833,331.5 405.5,332.167 406.5,332.5C 411.927,328.628 412.594,329.462 408.5,335C 403.339,337.253 400.339,335.586 399.5,330C 399.631,327.747 400.131,325.581 401,323.5C 402.707,321.963 404.207,320.296 405.5,318.5 Z M 407.5,321.5 C 408.801,323.456 408.301,325.123 406,326.5C 405.878,324.718 406.378,323.052 407.5,321.5 Z"/></g>
<g><path style="opacity:1" fill="#187a4c" d="M 112.5,318.5 C 115.167,318.5 117.833,318.5 120.5,318.5C 120.649,326.662 118.815,327.328 115,320.5C 115.829,323.851 116.995,327.184 118.5,330.5C 118.637,334.028 116.97,336.028 113.5,336.5C 111.777,335.448 110.11,335.448 108.5,336.5C 107.402,333.601 107.902,330.935 110,328.5C 110.402,329.872 110.902,331.205 111.5,332.5C 112.5,333.833 113.5,333.833 114.5,332.5C 112.394,329.731 110.727,326.731 109.5,323.5C 110.092,321.577 111.092,319.911 112.5,318.5 Z"/></g>
<g><path style="opacity:1" fill="#f9faf9" d="M 260.5,333.5 C 261.833,334.167 261.833,334.167 260.5,333.5 Z"/></g>
<g><path style="opacity:1" fill="#127d48" d="M 399.5,309.5 C 400.289,309.783 400.956,310.283 401.5,311C 399.529,316.547 397.862,322.214 396.5,328C 399.136,331.924 398.136,334.758 393.5,336.5C 391.274,334.078 388.94,334.078 386.5,336.5C 384.259,335.968 382.759,334.635 382,332.5C 380.364,334.898 378.198,336.065 375.5,336C 374.426,335.261 373.759,334.261 373.5,333C 374.594,329.461 375.428,325.961 376,322.5C 373.356,326.121 371.523,330.121 370.5,334.5C 368.955,335.452 367.288,335.785 365.5,335.5C 366.026,331.064 367.026,326.731 368.5,322.5C 365.868,319.584 366.701,318.251 371,318.5C 372.658,318.675 373.991,319.342 375,320.5C 376.466,318.675 378.299,318.175 380.5,319C 381.241,322.531 381.574,326.031 381.5,329.5C 383.272,322.918 387.438,318.918 394,317.5C 394.209,315.311 393.875,313.311 393,311.5C 395.277,310.883 397.444,310.216 399.5,309.5 Z M 391.5,321.5 C 392.517,325.628 391.35,329.295 388,332.5C 388.081,328.515 389.248,324.849 391.5,321.5 Z"/></g>
<g><path style="opacity:1" fill="#f9faf9" d="M 22.5,336.5 C 23.8333,337.167 23.8333,337.167 22.5,336.5 Z"/></g>
<g><path style="opacity:1" fill="#f9faf9" d="M 315.5,346.5 C 316.833,347.167 316.833,347.167 315.5,346.5 Z"/></g>
<g><path style="opacity:1" fill="#f9faf9" d="M 427.5,349.5 C 428.833,350.167 428.833,350.167 427.5,349.5 Z"/></g>
<g><path style="opacity:1" fill="#f9faf9" d="M 275.5,350.5 C 276.833,351.167 276.833,351.167 275.5,350.5 Z"/></g>
<g><path style="opacity:1" fill="#f9faf9" d="M 457.5,352.5 C 458.833,353.167 458.833,353.167 457.5,352.5 Z"/></g>
<g><path style="opacity:1" fill="#f9faf9" d="M 244.5,355.5 C 245.833,356.167 245.833,356.167 244.5,355.5 Z"/></g>
<g><path style="opacity:1" fill="#f9faf9" d="M 375.5,355.5 C 376.833,356.167 376.833,356.167 375.5,355.5 Z"/></g>
<g><path style="opacity:1" fill="#f9faf9" d="M 185.5,375.5 C 186.833,376.167 186.833,376.167 185.5,375.5 Z"/></g>
<g><path style="opacity:1" fill="#f9faf9" d="M 275.5,376.5 C 276.833,377.167 276.833,377.167 275.5,376.5 Z"/></g>
<g><path style="opacity:1" fill="#f9faf9" d="M 485.5,386.5 C 486.833,387.167 486.833,387.167 485.5,386.5 Z"/></g>
<g><path style="opacity:1" fill="#f9faf9" d="M 38.5,391.5 C 39.8333,392.167 39.8333,392.167 38.5,391.5 Z"/></g>
<g><path style="opacity:1" fill="#f9faf9" d="M 196.5,392.5 C 197.833,393.167 197.833,393.167 196.5,392.5 Z"/></g>
<g><path style="opacity:1" fill="#f9faf9" d="M 150.5,402.5 C 151.833,403.167 151.833,403.167 150.5,402.5 Z"/></g>
<g><path style="opacity:1" fill="#f9faf9" d="M 366.5,406.5 C 367.833,407.167 367.833,407.167 366.5,406.5 Z"/></g>
<g><path style="opacity:1" fill="#f9faf9" d="M 37.5,410.5 C 38.8333,411.167 38.8333,411.167 37.5,410.5 Z"/></g>
<g><path style="opacity:1" fill="#f9faf9" d="M 68.5,414.5 C 69.8333,415.167 69.8333,415.167 68.5,414.5 Z"/></g>
<g><path style="opacity:1" fill="#f9faf9" d="M 387.5,424.5 C 388.833,425.167 388.833,425.167 387.5,424.5 Z"/></g>
<g><path style="opacity:1" fill="#f9faf9" d="M 3.5,426.5 C 4.83333,427.167 4.83333,427.167 3.5,426.5 Z"/></g>
<g><path style="opacity:1" fill="#f9faf9" d="M 113.5,438.5 C 114.833,439.167 114.833,439.167 113.5,438.5 Z"/></g>
<g><path style="opacity:1" fill="#f9faf9" d="M 325.5,455.5 C 326.833,456.167 326.833,456.167 325.5,455.5 Z"/></g>
<g><path style="opacity:1" fill="#f9faf9" d="M 257.5,468.5 C 258.833,469.167 258.833,469.167 257.5,468.5 Z"/></g>
<g><path style="opacity:1" fill="#f9faf9" d="M 482.5,473.5 C 483.833,474.167 483.833,474.167 482.5,473.5 Z"/></g>
<g><path style="opacity:1" fill="#f9faf9" d="M 253.5,477.5 C 254.833,478.167 254.833,478.167 253.5,477.5 Z"/></g>
<g><path style="opacity:1" fill="#f9faf9" d="M 270.5,477.5 C 271.833,478.167 271.833,478.167 270.5,477.5 Z"/></g>
<g><path style="opacity:1" fill="#f9faf9" d="M 259.5,489.5 C 260.833,490.167 260.833,490.167 259.5,489.5 Z"/></g>
<g><path style="opacity:1" fill="#f9faf9" d="M 383.5,491.5 C 384.833,492.167 384.833,492.167 383.5,491.5 Z"/></g>
<g><path style="opacity:1" fill="#f9faf9" d="M 409.5,493.5 C 410.833,494.167 410.833,494.167 409.5,493.5 Z"/></g>
</svg>
